<svg xmlns="http://www.w3.org/2000/svg" width="229.54000000000002" height="35" viewBox="0 0 229.54000000000002 35"><rect class="svg__rect" x="0" y="0" width="115.31" height="35" fill="#F4F4F4"/><rect class="svg__rect" x="113.31" y="0" width="116.23" height="35" fill="#3BC4F3"/><path class="svg__text" d="M15.69 22L14.22 22L14.22 13.47L16.14 13.47L18.60 20.01L21.06 13.47L22.97 13.47L22.97 22L21.49 22L21.49 19.19L21.64 15.43L19.12 22L18.06 22L15.55 15.43L15.69 19.19L15.69 22ZM28.49 22L26.95 22L30.17 13.47L31.50 13.47L34.73 22L33.18 22L32.49 20.01L29.18 20.01L28.49 22ZM30.83 15.28L29.60 18.82L32.07 18.82L30.83 15.28ZM41.14 22L38.69 22L38.69 13.47L41.21 13.47Q42.34 13.47 43.21 13.97Q44.09 14.48 44.57 15.40Q45.05 16.33 45.05 17.52L45.05 17.52L45.05 17.95Q45.05 19.16 44.57 20.08Q44.08 21.00 43.19 21.50Q42.30 22 41.14 22L41.14 22ZM40.17 14.66L40.17 20.82L41.14 20.82Q42.30 20.82 42.93 20.09Q43.55 19.36 43.56 17.99L43.56 17.99L43.56 17.52Q43.56 16.13 42.96 15.40Q42.35 14.66 41.21 14.66L41.21 14.66L40.17 14.66ZM55.09 22L49.51 22L49.51 13.47L55.05 13.47L55.05 14.66L51.00 14.66L51.00 17.02L54.50 17.02L54.50 18.19L51.00 18.19L51.00 20.82L55.09 20.82L55.09 22ZM66.65 22L64.68 13.47L66.15 13.47L67.47 19.88L69.10 13.47L70.34 13.47L71.96 19.89L73.27 13.47L74.74 13.47L72.77 22L71.35 22L69.73 15.77L68.07 22L66.65 22ZM80.38 22L78.90 22L78.90 13.47L80.38 13.47L80.38 22ZM86.87 14.66L84.23 14.66L84.23 13.47L91.00 13.47L91.00 14.66L88.34 14.66L88.34 22L86.87 22L86.87 14.66ZM96.24 22L94.75 22L94.75 13.47L96.24 13.47L96.24 17.02L100.05 17.02L100.05 13.47L101.53 13.47L101.53 22L100.05 22L100.05 18.21L96.24 18.21L96.24 22Z" fill="#3BC4F3"/><path class="svg__text" d="M129.29 15.48L126.71 15.48L126.71 13.60L134.23 13.60L134.23 15.48L131.66 15.48L131.66 22L129.29 22L129.29 15.48ZM140.02 22L137.59 22L141.30 13.60L143.65 13.60L147.36 22L144.89 22L144.23 20.37L140.68 20.37L140.02 22ZM142.46 15.93L141.37 18.61L143.53 18.61L142.46 15.93ZM153.89 22L151.52 22L151.52 13.60L153.89 13.60L153.89 22ZM165.45 22L159.07 22L159.07 13.60L161.45 13.60L161.45 20.11L165.45 20.11L165.45 22ZM171.95 22L169.23 13.60L171.68 13.60L173.37 18.96L175.14 13.60L177.33 13.60L179.02 19.01L180.78 13.60L183.05 13.60L180.33 22L177.78 22L176.18 16.89L174.50 22L171.95 22ZM189.94 22L187.56 22L187.56 13.60L189.94 13.60L189.94 22ZM197.45 22L195.12 22L195.12 13.60L197.07 13.60L200.78 18.07L200.78 13.60L203.11 13.60L203.11 22L201.16 22L197.45 17.52L197.45 22ZM212.24 22L208.27 22L208.27 13.60L212.24 13.60Q213.62 13.60 214.69 14.12Q215.76 14.63 216.35 15.58Q216.94 16.53 216.94 17.80L216.94 17.80Q216.94 19.07 216.35 20.02Q215.76 20.97 214.69 21.48Q213.62 22 212.24 22L212.24 22ZM210.65 15.50L210.65 20.10L212.15 20.10Q213.23 20.10 213.88 19.49Q214.53 18.88 214.53 17.80L214.53 17.80Q214.53 16.72 213.88 16.11Q213.23 15.50 212.15 15.50L212.15 15.50L210.65 15.50Z" fill="#FFFFFF" x="126.31"/></svg>